<svg width="354" height="334" viewBox="0 0 354 334" fill="none" xmlns="http://www.w3.org/2000/svg">
<path d="M336 103.152C310.252 101.843 319.857 116.977 283.608 121.671C247.359 126.364 219.798 97.5897 209.891 104.126C199.983 110.663 196.438 130.61 193.751 132.175C191.702 133.368 184.957 132.539 181.452 133.064C181.074 133.121 180.403 133.53 180.059 133.698C178.365 134.525 171.295 134.92 167.517 134.186C163.487 133.404 164.271 129.715 163.151 125.358C162.032 121 156.994 113.066 150.389 104.126C143.783 95.1871 136.172 79.2075 140.985 55.7406C145.798 32.2738 174.122 17.2995 202.444 31.1568C230.767 45.0131 220.915 91.0531 210.056 106.138C199.197 121.224 197.182 135.527 195.615 136.645C194.048 137.762 169.755 139.439 165.949 138.21C162.144 136.981 159.345 135.193 158.449 131.729C157.554 128.266 151.956 119.214 140.537 100.44C129.119 81.6671 127.998 62.6704 134.94 40.7674C141.881 18.8655 180.614 -3.70776 214.646 26.9111C248.679 57.53 222.706 100.887 214.646 112.844C206.586 124.802 201.492 137.037 199.981 139.998C198.469 142.96 195.167 143.09 185.764 143.835C176.36 144.58 161.695 141.117 161.545 141.19C161.396 141.265 161.358 142.792 161.172 143.462C160.986 144.132 169.493 148.603 181.845 148.603C194.196 148.603 197.257 144.989 197.555 145.176C197.853 145.362 199.084 146.758 198.972 147.205C198.86 147.652 201.435 149.552 191.248 151.564C181.061 153.575 163.709 148.77 162.533 147.932C161.358 147.095 162.03 153.352 164.381 154.638C166.732 155.922 196.062 153.912 196.901 154.247C197.74 154.582 196.789 157.599 191.584 159.722C186.378 161.846 168.466 158.102 166.844 158.157C165.22 158.213 169.362 163.409 171.602 164.191C173.841 164.973 192.555 163.465 193.151 163.987C193.749 164.509 190.207 170.188 181.733 169.724C173.259 169.259 164.866 163.243 162.478 158.251C160.09 153.259 159.045 140.372 159.194 139.031C159.343 137.69 165.538 140.373 176.732 141.788C187.927 143.203 198.301 137.318 200.988 137.764C203.674 138.211 197.155 163.001 194.943 166.148C193.798 167.778 182.805 175.913 179.061 174.92C175.318 173.927 179.345 170.3 190.575 172.54C201.806 174.779 219.992 174.22 222.197 172.837C223.897 171.771 229.912 164.787 231.939 164.047C233.967 163.308 243.405 163.424 244.379 164.086C245.354 164.748 245.511 167.94 246.251 168.096C246.992 168.252 246.407 165.761 249.293 167.473C252.179 169.185 247.85 174.13 246.992 173.819C246.134 173.507 246.953 177.517 248.67 176.582C250.385 175.648 255.689 163.892 254.402 159.688C253.115 155.483 245.159 160.583 246.953 160.621C248.747 160.661 252.725 158.637 251.204 156.339C249.683 154.041 238.568 149.76 233.537 154.743C228.506 159.726 225.27 158.402 226.088 159.726C226.907 161.049 232.393 163.593 232.522 165.642C232.652 167.692 229.051 175.569 234.082 179.54C239.113 183.511 245.899 176.348 246.211 176.814C246.523 177.281 246.289 185.496 245.392 186.39C244.495 187.286 235.33 187.987 234.746 186.78C234.161 185.574 234.824 181.525 234.941 181.876C235.058 182.226 236.188 184.095 230.222 185.223C224.255 186.352 218.717 190.089 215.207 196.007C211.697 201.923 208.889 209.71 207.407 209.553C205.926 209.398 189.117 198.576 187.167 199.549C185.216 200.521 184.398 205.116 183.501 205.193C182.604 205.271 176.325 203.246 174.882 201.027C173.44 198.808 175.766 192.684 176.417 192.84C177.067 192.996 180.784 198.108 181.383 196.733C181.98 195.358 181.773 193.722 182.968 194.06C184.165 194.397 186.141 196.966 185.776 198.031C185.412 199.095 181.226 205.037 181.694 206.024C182.162 207.01 202.922 225.085 208.225 224.346C213.53 223.606 225.111 208.112 225.111 207.412C225.111 206.712 223.903 198.964 223.669 199.938C223.435 200.911 222.577 223.296 223.669 223.879C224.761 224.463 228.973 224.034 229.519 223.334C230.065 222.633 229.051 221.31 230.338 221.31C231.625 221.31 234.316 222.633 234.979 224.618C235.641 226.603 236.851 230.652 236.071 231.275C235.291 231.899 224.67 233.611 223.631 232.262C222.591 230.912 222.071 225.125 222.539 225.086C223.006 225.047 228.7 226.137 230.533 225.476C232.366 224.815 254.153 217.677 254.465 218.716C254.777 219.755 255.089 221.83 254.361 221.104C253.632 220.377 252.489 202.263 254.309 196.19C256.129 190.117 259.457 188.923 258.989 188.197C258.521 187.469 247.693 182.306 247.459 183.668C247.225 185.031 260.523 188.846 262.24 192.583C263.955 196.32 268.401 218.613 265.489 225.361C262.578 232.109 235.174 233.77 237.748 232.29C240.322 230.811 254.258 229.617 256.181 229.46C258.105 229.305 257.69 232.276 258.313 232.789C258.938 233.302 274.381 232.225 275.004 232.789C275.629 233.353 277.916 237.92 276.772 239.375C275.629 240.828 259.093 239.583 259.093 240.516C259.093 241.45 273.965 320.761 274.9 320.967C275.836 321.175 280.1 320.344 280.204 319.722C280.308 319.099 266.841 241.866 265.047 241.476C263.254 241.086 223.865 238.362 219.888 239.919C215.91 241.476 202.884 263.976 202.884 268.492C202.884 273.008 210.294 280.171 210.762 279.625C211.23 279.08 215.364 263.898 216.846 261.174C218.328 258.448 233.616 247.16 233.07 246.849C232.523 246.537 215.754 258.45 214.351 260.395C212.948 262.341 200.155 307.187 200.467 308.277C200.78 309.368 210.841 310.146 210.997 311.47C211.153 312.793 212.168 320.345 210.529 320.579C208.891 320.812 185.727 321.435 186.116 319.955C186.507 318.477 199.141 310.457 200.858 310.69C202.573 310.923 208.579 313.181 209.437 312.637C210.296 312.092 225.739 281.105 226.362 281.651C226.987 282.196 233.694 301.27 233.694 303.451C233.694 305.631 224.256 306.72 224.335 308.356C224.413 309.991 218.953 318.71 220.435 319.957C221.916 321.202 238.842 313.65 238.374 311.003C237.906 308.356 236.735 305.32 235.488 305.865C234.24 306.41 223.632 308.824 221.995 307.266C220.357 305.709 218.953 299.715 218.953 298.858C218.953 298.001 229.483 272.698 231.355 271.296C233.227 269.894 253.195 255.647 255.144 255.414C257.095 255.18 260.37 256.504 260.448 258.061C260.527 259.618 261.58 263.861 259.786 264.173C257.992 264.485 250.933 264.952 250.855 265.652C250.777 266.352 255.456 318.166 256.497 318.27C257.537 318.374 262.528 317.751 262.528 317.751C262.528 317.751 257.485 267.248 255.456 266.625C253.429 266.002 242.762 267.948 243.523 265.068C244.284 262.187 257.251 254.012 257.953 248.484C258.654 242.956 257.485 241.944 256.315 241.944C255.144 241.944 103.129 238.985 102.583 240.775C102.036 242.566 101.569 251.13 105.936 255.412C110.304 259.695 117.506 261.952 116.882 262.419C116.258 262.886 106.223 262.056 104.922 263.665C103.622 265.273 93.8465 318.709 95.0953 318.709C96.3441 318.709 98.6056 318.864 98.995 318.787C99.3855 318.709 110.486 265.793 109.395 265.326C108.303 264.859 100.14 263.716 99.8275 262.938C99.5153 262.159 98.7354 256.242 99.4113 255.982C100.087 255.723 108.667 254.996 109.863 255.359C111.059 255.722 124.734 265.74 126.762 266.986C128.79 268.231 122.342 305.394 122.654 307.263C122.966 309.132 133.365 309.028 134.145 309.703C134.925 310.377 135.289 314.426 137.785 316.243C140.281 318.059 141.269 320.447 138.981 320.498C136.694 320.55 125.514 319.096 123.487 317.955C121.459 316.813 121.198 310.117 122.811 309.754C124.423 309.391 133.679 308.768 133.626 307.263C133.574 305.757 144.468 271.371 142.128 264.676C139.788 257.98 124.657 243.966 124.969 245.446C125.282 246.924 139.723 264.269 141.037 266.934C142.351 269.599 152.736 311.857 153.595 312.091C154.453 312.324 163.891 310.014 164.879 310.689C165.867 311.364 180.166 316.45 175.85 318.837C171.534 321.225 158.275 320.135 156.924 318.837C155.572 317.539 154.22 314.529 154.739 314.01C155.259 313.49 164.931 312.09 165.295 308.611C165.659 305.134 159.211 262.027 154.609 255.643C150.008 249.258 143.663 242.588 142.001 241.966C140.337 241.343 96.3463 242.641 95.8786 243.004C95.4108 243.367 78.6414 318.083 79.4214 318.784C80.2013 319.484 84.4916 319.017 84.4916 319.017C84.4916 319.017 99.3497 244.898 98.6873 244.43C98.0248 243.963 83.9063 244.897 83.01 243.262C82.1137 241.627 82.6978 233.141 83.7508 232.635C84.8038 232.129 222.651 231.688 221.766 232.57C220.882 233.452 174.397 234.18 173.825 233.66C173.253 233.141 181.261 208.591 180.169 207.449C179.077 206.307 147.878 207.19 147.462 207.604C147.046 208.02 143.276 228.185 140.936 228.495C138.597 228.806 123.075 228.911 122.789 229.3C122.503 229.689 122.243 231.194 122.322 231.349C122.4 231.504 137.297 230.778 137.349 230.389C137.4 229.999 135.945 224.886 130.927 225.017C125.909 225.147 124.375 226.833 123.049 226.47C121.723 226.107 104.33 220.242 104.199 219.541C104.069 218.841 105.188 216.79 104.278 216.79C103.368 216.79 94.4239 216.427 93.6708 217.959C92.9166 219.49 90.7849 227.587 93.9304 229.274C97.0759 230.96 108.698 231.584 107.969 231.168C107.241 230.753 94.6063 227.431 93.8521 225.562C93.0978 223.693 95.3079 219.204 94.8144 218.84C94.3209 218.477 90.7323 217.569 90.4727 217.05C90.2131 216.53 94.4765 193.485 98.8965 189.54C103.317 185.595 108.308 195.769 108.672 201.271C109.036 206.773 107.853 215.778 106.411 215.857C104.968 215.935 93.5801 215.467 93.2288 214.417C92.8774 213.366 93.9696 193.551 102.354 188.063C110.739 182.574 113.872 182.976 114.08 183.339C114.288 183.702 113.768 184.792 115.432 186.012C117.096 187.231 124.861 186.036 125.286 185.649C125.735 185.24 125.871 182.943 127.568 182.846C129.264 182.749 140.886 187.245 143.069 190.437C145.253 193.63 146.696 205.931 146.306 209.006C145.916 212.081 143.615 220.373 142.472 220.425C141.328 220.476 138.156 219.387 137.792 220.737C137.428 222.086 137.012 226.914 137.584 226.602C138.156 226.29 142.368 193.798 139.456 190.269C136.544 186.739 125.8 186.785 125.702 186.323C125.584 185.762 124.897 180.666 124.688 180.511C124.48 180.355 121.309 180.693 118.058 177.916C114.809 175.139 119.021 181.393 123.154 181.367C127.288 181.342 130.174 177.682 129.966 173.529C129.758 169.376 131.058 163.693 130.148 163.512C129.238 163.33 119.099 162.941 117.278 164.395C115.459 165.848 117.019 169.456 116.108 169.222C115.198 168.989 113.768 166.834 113.352 168.418C112.936 170.001 112.702 172.336 114.391 173.505C116.081 174.673 114.001 176.282 113.898 177.242C113.794 178.203 115.146 184.249 115.068 182.745C114.991 181.24 115.589 178.307 112.78 175.193C109.972 172.078 107.164 159.31 110.518 158.038C113.872 156.767 113.352 159.491 112.78 159.258C112.208 159.024 110.154 155.235 116.835 153.055C123.517 150.875 126.324 156.222 131.005 156.014C135.685 155.806 137.989 159.439 134.229 161.931C130.469 164.423 117.915 166.77 114.756 165.135C111.597 163.5 111.481 157.699 102.55 159.646C93.6193 161.593 90.5253 178.021 72.638 173.246C54.7507 168.471 38.7355 157.779 17 166.394" stroke="#FFDC54" stroke-width="0.943314" stroke-miterlimit="10"/>
</svg>
