<svg width="354" height="334" viewBox="0 0 354 334" fill="none" xmlns="http://www.w3.org/2000/svg">
<path d="M260.703 313.963L256.046 272.196L255.436 271.748C253.731 272.077 252.251 272.406 250.948 272.697C247.49 273.467 245.404 273.934 244.511 273.137C243.285 272.043 243.656 268.031 244.477 260.437C245.489 251.071 248.291 239.229 252.803 225.25C259.166 213.484 259.454 198.269 253.604 182.408C248.441 168.402 238.934 155.231 228.177 147.178C227.61 146.753 227.169 146.493 226.851 146.305C226.748 146.244 226.633 146.175 226.552 146.122C226.644 145.976 226.828 145.739 227.016 145.49C227.315 145.1 227.721 144.564 228.239 143.818C243.886 121.189 259.53 98.556 275.178 75.9271L278.502 71.1158L202.969 19.8947L198.055 27.7451L141.329 18L139.381 26.8648L104.49 29.5288L101.373 29.7393L116.243 139.324L117.267 139.217L109.91 44.6976C109.895 44.5062 109.88 44.3493 109.864 44.2192C109.857 44.135 109.849 44.0508 109.841 43.9857C109.876 43.9704 109.918 43.9551 109.952 43.9397C110.129 43.867 110.366 43.7713 110.688 43.6067C113.173 42.3436 117.412 39.7179 117.895 36.3228C117.918 36.1506 117.937 36.0013 117.953 35.8711C117.968 35.7563 117.983 35.6338 117.995 35.5458C118.079 35.542 118.194 35.5381 118.302 35.5381C118.578 35.5343 118.957 35.5266 119.475 35.4807L138.707 33.8157L129.169 125.686L130.189 125.824L145.825 33.6664C147.45 33.4712 153.381 32.4531 154.937 27.8944L155.01 27.6839C155.052 27.5537 155.098 27.4236 155.133 27.3317C155.198 27.347 155.278 27.3623 155.351 27.3815C155.57 27.4312 155.865 27.504 156.263 27.569L193.811 33.6817L109.826 157.065L95.631 178.002L161.983 221.997L162.554 221.139L97.0685 177.719L110.681 157.643L195.126 33.5937L195.578 32.9277L156.436 26.5547C156.072 26.4935 155.807 26.4322 155.593 26.3825C154.588 26.149 154.37 26.3672 154.036 27.3585L153.967 27.5652C152.419 32.1048 145.423 32.6789 145.35 32.6827L144.878 33.1114L131.845 109.932L139.864 32.6866L119.39 34.4587C118.907 34.5009 118.547 34.5085 118.286 34.5123C117.27 34.5315 117.056 34.7267 116.929 35.7487C116.914 35.8711 116.899 36.0128 116.872 36.1812C116.442 39.2241 112.076 41.7465 110.221 42.6919C109.933 42.8374 109.726 42.9216 109.558 42.9943C108.837 43.2929 108.756 43.5455 108.833 44.3302C108.845 44.4527 108.86 44.6058 108.875 44.7857L114.832 121.346L102.543 30.6924L104.563 30.5546L140.221 27.8331L142.122 19.1789L198.22 28.8168L198.561 28.8743L203.272 21.3453L274.929 69.9331L277.06 71.3799L274.323 75.3377C258.676 97.9704 243.032 120.599 227.384 143.228C226.882 143.955 226.479 144.48 226.188 144.859C225.636 145.578 225.387 145.907 225.471 146.332C225.548 146.727 225.87 146.918 226.318 147.182C226.621 147.358 227.031 147.603 227.553 147.993C238.159 155.932 247.532 168.927 252.63 182.756C258.38 198.357 258.108 213.285 251.868 224.795L251.829 224.883C247.287 238.953 244.465 250.876 243.446 260.323C242.959 264.843 242.637 268.02 242.698 270.213C242.307 268.131 241.686 265.873 241.395 264.862L240.839 264.495L182.74 271.503L178.386 266.795L178.324 266.738C171.723 261.589 168.285 235.512 168.25 235.252L168.243 235.206C164.471 218.257 168.193 206.326 168.223 206.227C168.565 205.266 176.596 182.576 177.45 174.278C178.294 166.048 181.905 135.079 181.943 134.773C183.285 124.132 188.176 120.331 189.468 119.497L190.875 120.971C183.07 125.64 184.331 135.898 184.343 136.002L184.35 136.044C184.941 138.723 190.3 139.339 195.13 139.339C198.772 139.339 202.114 138.987 202.885 138.899L203.314 138.849L203.341 138.421C203.889 130.065 203.249 125.319 201.328 123.485C200.094 122.306 198.549 122.479 197.311 122.616C195.667 122.8 194.762 122.9 194.463 120.798C193.769 115.941 189.192 115.723 189.146 115.719H189.127C188.525 115.719 187.801 116.19 185.14 117.97C184.998 118.062 184.879 118.073 184.734 118.004C184.408 117.859 184.143 117.445 184.051 117.223C184.435 116.814 185.857 115.704 187.087 114.808L187.153 114.751C189.844 111.972 187.716 109.35 187.697 109.327L187.666 109.292C185.585 107.203 182.464 109.725 182.33 109.832L182.3 109.859C179.014 113.009 177.021 113.028 176.99 113.028H176.918C173.947 113.3 172.471 110.376 172.41 110.249L172.348 110.15C171.378 108.948 172.199 105.273 172.582 104.703C172.743 104.554 172.824 104.347 172.812 104.118C172.766 103.23 171.114 102.035 170.608 101.691C170.478 101.603 170.474 101.534 170.474 101.499C170.458 101.224 170.784 100.772 171.102 100.435C173.993 102.158 174.246 102.146 174.384 101.718C174.48 101.411 174.913 100.979 175.17 100.833C175.568 100.608 176.028 100.363 176.45 100.045C176.833 99.7617 177.247 99.7961 177.527 99.8727C177.956 99.9913 178.324 100.286 178.462 100.516C178.298 100.826 177.335 101.53 176.358 102.047L176.254 102.116C174.319 103.846 173.33 105.515 173.318 107.072C173.31 108.225 173.859 108.959 174.081 109.208C174.38 109.916 174.905 110.387 175.61 110.575C178.447 111.329 183.607 107.245 184.427 106.575C187.475 105.25 189.242 108.182 189.315 108.309L189.349 108.385L189.43 108.447C189.805 108.806 191.695 112.209 192.604 113.843C192.976 114.509 193.278 115.061 193.455 115.359V115.367L194.735 117.495L195.421 117.683C196.79 116.948 198.085 116.909 199.377 117.564C204.556 120.186 208.194 133.215 209.267 140.809C209.333 141.265 209.363 141.647 209.386 141.957C209.436 142.616 209.471 143.048 209.915 143.186C210.398 143.335 210.64 143.037 211.656 141.789L211.751 141.67C217.789 134.241 217.632 124.722 217.62 124.308C217.13 113.836 213.752 105.859 207.581 100.596C198.204 92.604 185.416 93.7409 184.768 93.8021C171.068 94.1389 162.535 106.292 162.45 106.414L162.424 106.456C148.455 131.634 161.128 141.406 169.512 147.875C171.206 149.18 172.67 150.309 173.717 151.412C175.254 153.031 175.871 153.861 176.116 154.275C174.23 153.674 167.921 149.448 165.923 147.634C156.608 139.186 153.319 129.192 156.148 117.935C158.215 109.706 162.976 103.773 163.255 103.429C171.451 95.0001 182.522 91.2529 193.631 93.1476C203.924 94.9044 212.786 101.342 216.758 109.955C220.664 118.421 220.204 133.862 213.289 142.482C212.326 143.684 211.636 144.204 211.134 144.587C210.092 145.379 209.716 145.789 209.482 148.434C209.356 149.858 209.122 151.76 208.915 153.436C208.669 155.427 208.459 157.149 208.459 157.765C208.459 158.443 208.018 162.182 207.588 165.796C206.714 173.187 206.622 174.247 206.718 174.538L206.833 174.856L207.159 174.894C207.159 174.894 207.178 174.894 207.186 174.894C208.079 174.894 212.721 170.538 212.767 170.496C215.27 168.127 218.793 164.425 221.354 160.257C225.084 154.183 225.62 149.058 222.949 145.023C222.469 144.296 222.082 143.818 221.802 143.469C221.615 143.236 221.377 142.945 221.385 142.876C221.4 142.738 221.691 142.34 222.032 141.877C222.339 141.46 222.761 140.886 223.286 140.105L263.379 80.4973C264.414 78.9624 264.533 78.4648 263.494 77.6343C263.126 77.3395 262.624 76.9414 262.068 76.0879C260.24 73.2937 260.378 69.7264 260.623 67.8509C260.684 67.3839 260.757 67.0624 260.811 66.8289C261.014 65.9294 260.853 65.738 260.029 65.2366C259.837 65.1179 259.588 64.9687 259.274 64.762L214.044 34.8568C213.714 34.6386 213.469 34.4664 213.281 34.3324C212.675 33.9076 212.277 33.6243 211.717 34.298C211.594 34.4434 211.429 34.6425 211.104 34.9028C208.252 37.1725 201.022 35.6338 200.949 35.6185L200.412 35.829L137.514 127.787L114.307 162.064L110.359 167.664C110.06 168.085 109.822 168.395 109.627 168.643C108.822 169.677 108.818 169.937 109.592 170.963C109.73 171.147 109.903 171.376 110.106 171.663C112.609 175.235 112.287 178.653 111.869 180.375C111.773 180.777 111.674 181.026 111.601 181.21C111.29 181.994 111.582 182.212 112.214 182.603C112.333 182.676 112.479 182.767 112.655 182.878C114.637 184.153 117.454 185.852 120.717 187.82C135.667 196.838 160.683 211.926 163.401 221.181C163.485 221.472 163.543 221.698 163.581 221.866C163.474 221.79 163.363 221.71 163.263 221.641C163.041 221.48 162.795 221.3 162.531 221.128L161.96 221.985C162.209 222.15 162.443 222.322 162.657 222.475C163.19 222.862 163.616 223.168 163.991 223.168C164.126 223.168 164.252 223.13 164.375 223.042C164.827 222.724 164.735 222.069 164.39 220.89C161.561 211.252 136.326 196.03 121.249 186.939C117.995 184.976 115.185 183.28 113.215 182.013C113.031 181.895 112.881 181.803 112.755 181.726C112.686 181.684 112.613 181.638 112.555 181.6C112.555 181.596 112.559 181.588 112.563 181.585C112.644 181.386 112.759 181.083 112.874 180.612C113.33 178.725 113.686 174.974 110.953 171.07C110.742 170.772 110.566 170.534 110.42 170.343C110.248 170.113 110.071 169.876 110.048 169.83C110.067 169.75 110.259 169.505 110.443 169.267C110.631 169.026 110.892 168.689 111.202 168.249L115.154 162.642L138.365 128.362L201.087 36.7017C201.865 36.851 203.828 37.1802 205.959 37.1802C208.091 37.1802 210.329 36.8587 211.763 35.7142C212.123 35.4271 212.342 35.1822 212.476 35.0214C212.545 35.0673 212.625 35.1248 212.702 35.1783C212.898 35.3161 213.151 35.4922 213.488 35.718L258.718 65.6232C259.047 65.8414 259.304 65.9983 259.504 66.1208C259.645 66.2088 259.791 66.2969 259.868 66.3504C259.856 66.4155 259.833 66.5189 259.814 66.6069C259.757 66.8595 259.68 67.2078 259.611 67.7207C259.346 69.7379 259.205 73.5846 261.213 76.6544C261.861 77.6457 262.463 78.128 262.862 78.4419C263 78.5529 263.168 78.6868 263.195 78.7328C263.203 78.8208 263.092 79.1002 262.536 79.927L222.443 139.534C221.929 140.3 221.515 140.859 221.212 141.272C220.173 142.688 220.081 142.968 221.009 144.12C221.277 144.453 221.645 144.908 222.098 145.594C223.692 148.009 224.003 150.922 223.018 154.255C220.541 162.638 210.621 171.361 207.769 173.451C207.907 171.912 208.294 168.659 208.616 165.926C209.064 162.117 209.494 158.516 209.494 157.777C209.494 157.222 209.712 155.45 209.942 153.574C210.149 151.89 210.383 149.98 210.513 148.537C210.72 146.21 210.962 146.026 211.763 145.417C212.307 145.004 213.055 144.434 214.097 143.136C217.356 139.075 219.487 133.207 220.108 126.616C220.695 120.35 219.817 114.127 217.701 109.537C213.588 100.623 204.433 93.959 193.811 92.1447C182.357 90.1888 170.949 94.0509 162.512 102.736L162.485 102.766C162.278 103.019 157.348 109.009 155.163 117.663C153.139 125.686 153.243 137.533 165.237 148.411C166.318 149.391 168.952 151.293 171.359 152.835C174.61 154.914 175.944 155.4 176.561 155.4C176.883 155.4 177.01 155.27 177.113 155.163C177.631 154.634 177.366 153.769 174.468 150.723C173.368 149.567 171.877 148.415 170.148 147.083C162.044 140.832 149.797 131.389 163.317 107C163.512 106.724 165.793 103.574 169.73 100.55C169.554 100.864 169.427 101.209 169.446 101.557C169.462 101.836 169.577 102.234 170.029 102.544C170.972 103.187 171.597 103.83 171.754 104.114C171.133 105.082 170.248 109.093 171.513 110.755C171.754 111.222 173.514 114.364 176.99 114.058C177.343 114.058 179.574 113.897 183.001 110.621C183.2 110.464 185.546 108.665 186.919 110.004C187.076 110.211 188.36 111.999 186.443 114.012C183.039 116.492 183.009 116.852 182.99 117.093C182.955 117.564 183.453 118.456 184.132 118.858C184.385 119.007 184.649 119.083 184.91 119.083C185.171 119.083 185.454 119.003 185.707 118.835C187.44 117.675 188.809 116.76 189.123 116.752C189.399 116.768 192.88 117.032 193.443 120.948C193.884 124.033 195.847 123.818 197.426 123.642C198.611 123.512 199.734 123.386 200.619 124.232C202.248 125.786 202.812 130.268 202.344 137.923C195.939 138.601 186.029 138.616 185.37 135.841C185.309 135.32 184.304 125.602 191.948 121.537L192.079 120.729L189.94 118.486L189.342 118.379C189.066 118.513 182.549 121.801 180.927 134.643C180.893 134.957 177.278 165.93 176.435 174.167C175.595 182.342 167.346 205.641 167.257 205.89C167.219 206.012 163.413 218.173 167.238 235.401C167.419 236.783 170.796 262.068 177.657 267.511L181.487 271.652L177.098 272.18L176.657 272.575C176.622 272.728 175.787 276.398 177.305 281.596C177.473 282.178 177.7 282.672 177.979 283.089C175.35 283.472 173.763 283.705 173.659 283.721L173.226 284.31L177.838 313.963H15V314.992H179.041L174.322 284.666C175.124 284.547 176.699 284.318 178.846 284.004C179.095 284.18 179.363 284.325 179.658 284.429C180.069 284.574 180.498 284.635 180.927 284.635C182.99 284.635 185.048 283.231 185.152 283.162L185.102 283.093C204.341 280.276 241.314 274.864 242.276 274.703C242.503 274.665 242.698 274.531 242.832 274.32C243.035 274.002 243.081 273.378 243.032 272.598C243.212 273.16 243.472 273.589 243.825 273.907C244.366 274.389 245.056 274.584 245.968 274.584C247.225 274.584 248.904 274.209 251.17 273.704C252.324 273.447 253.619 273.156 255.084 272.869L259.78 315H339V313.97H260.703V313.963ZM184.818 94.847H184.864C184.991 94.8279 197.679 93.5189 206.917 101.392C212.863 106.46 216.121 114.192 216.597 124.358C216.597 124.454 216.758 133.9 210.958 141.035L210.862 141.154C210.697 141.353 210.544 141.544 210.406 141.709C210.383 141.421 210.352 141.081 210.295 140.675C209.501 135.064 206.078 119.811 199.849 116.657C198.4 115.922 196.897 115.895 195.383 116.569L194.352 114.85C194.179 114.552 193.876 114.008 193.512 113.35C191.419 109.583 190.572 108.152 190.173 107.735C189.349 106.372 187.049 104.271 183.944 105.668L183.883 105.694L183.829 105.737C182.311 106.988 177.918 110.123 175.879 109.58C175.461 109.469 175.181 109.201 175.009 108.741L174.966 108.626L174.878 108.542C174.878 108.542 174.349 108.026 174.353 107.072C174.361 105.848 175.242 104.412 176.898 102.919C178.282 102.177 179.827 101.113 179.451 100.187C179.218 99.6162 178.543 99.0765 177.807 98.8737C177.098 98.6746 176.4 98.7971 175.84 99.2105C175.472 99.4861 175.047 99.7196 174.675 99.9225C174.2 100.183 173.82 100.393 173.602 100.654C173.054 100.366 172.145 99.8497 171.348 99.3713C174.867 96.9982 179.428 94.9619 184.818 94.8356V94.847ZM179.164 282.913C178.788 282.534 178.497 281.998 178.294 281.305C177.113 277.271 177.439 274.159 177.596 273.156L182.346 272.582L182.664 272.927L184.239 282.167C182.338 282.446 180.628 282.695 179.164 282.909V282.913ZM241.993 273.7C239.536 274.075 204.108 279.265 185.259 282.021L183.63 272.456L183.607 272.433L240.528 265.566C241.491 269.011 242.28 272.904 241.989 273.7H241.993Z" fill="#FFDC54"/>
</svg>
