<svg width="354" height="334" viewBox="0 0 354 334" fill="none" xmlns="http://www.w3.org/2000/svg">
<path d="M26.4005 319.072C26.4005 319.072 41.9657 304.086 87.315 314.845C132.664 325.604 137.661 323.684 139.582 312.731C141.504 301.779 140.159 280.165 141.696 265.658C143.233 251.152 126.035 188.515 126.419 176.123C126.804 163.731 127.284 138.177 126.707 138.657C126.131 139.137 120.366 143.94 120.174 160.656C119.982 177.371 111.238 223.196 109.124 227.23C107.01 231.265 83.1831 244.042 76.7453 246.155C70.3076 248.269 56.2806 251.727 57.0492 253.936C57.8178 256.146 62.3335 276.608 62.1416 279.971C61.9497 283.333 55.288 279.875 50.6763 283.141C46.0646 286.407 40.7483 287.208 37.321 287.368C33.8938 287.529 30.6594 285.095 32.4854 283.045C34.3106 280.995 39.0511 279.362 41.1321 278.722C43.2141 278.081 43.534 284.902 38.4735 285.991C33.4131 287.08 32.4845 282.373 31.2991 282.341C30.1137 282.309 25.3101 286.471 23.0043 284.55C20.6984 282.628 20.9863 279.971 23.7409 278.274C26.4955 276.577 32.0358 275.681 32.9643 277.793C33.8928 279.907 31.8758 282.117 27.52 282.532C23.1642 282.949 21.0823 281.796 23.9008 279.298C26.7194 276.801 27.552 274.847 26.3986 274.719C25.2452 274.591 20.4736 278.017 17.8798 279.011C15.2861 280.003 11.635 276.705 13.1402 274.015C14.6455 271.325 19.2891 274.087 18.7849 276.368C18.2806 278.65 13.2126 277.401 13.7649 274.975C14.3171 272.549 24.7664 270.172 25.1747 268.851C25.5829 267.53 16.8158 269.115 13.8373 271.084C10.8588 273.052 8.52851 273.077 9.08168 267.818C9.63486 262.558 19.9148 260.133 30.6754 256.194C41.436 252.255 41.3645 250.358 41.58 251.967C41.7963 253.576 38.7698 252.543 35.6474 249.445C32.525 246.346 29.6989 239.557 31.7479 236.291C33.7978 233.025 35.9757 232.417 36.9363 235.587C37.8968 238.757 39.9468 242.056 43.534 243.432C47.1211 244.809 49.6509 245.61 52.6294 249.708C55.6079 253.807 55.5759 256.241 57.433 263.734C59.2901 271.228 60.6994 275.551 60.3635 278.336C60.0277 281.121 61.0842 300.816 69.539 296.157C77.9937 291.498 91.9737 282.083 114.888 272.717C137.803 263.351 137.275 255.76 137.082 246.923C136.89 238.084 123.15 195.911 124.016 177.946C124.88 159.981 122.67 139.519 127.955 131.834C133.239 124.149 164.689 107.144 163.921 109.066C163.152 110.988 153.096 117.841 153.544 119.57C153.993 121.298 158.22 123.476 156.299 125.526C154.377 127.576 145.922 128.28 145.858 130.714C145.794 133.147 141.31 176.314 144.576 186.977C147.843 197.641 165.041 229.823 165.81 228.574C166.578 227.325 152.503 199.226 153.079 180.492C153.656 161.759 166.738 109.13 168.596 109.771C170.454 110.411 181.407 114.767 181.471 115.791C181.535 116.815 176.347 117.264 175.963 119.506C175.578 121.747 173.593 128.664 175.13 129.049C176.667 129.433 178.845 128.408 179.358 129.753C179.871 131.098 178.733 178.62 178.589 182.798C178.445 186.977 167.636 222.57 166.627 221.562C165.619 220.553 155.386 198.073 155.963 192.598C156.539 187.122 166.483 137.311 170.231 133.18C173.978 129.049 178.206 132.22 181.473 128.953C184.739 125.687 187.093 122.613 187.141 121.555C187.189 120.499 182.769 116.32 181.569 116.992C180.367 117.665 172.681 122.709 170.567 126.743C168.453 130.778 167.397 125.879 167.829 121.555C168.261 117.232 169.558 109.018 166.292 106.377C163.025 103.734 160.655 103.623 160.462 102.982C160.271 102.341 166.932 100.484 175.195 96.1292C183.458 91.774 186.788 87.2268 186.788 88.444C186.788 89.6612 179.355 95.879 170.647 99.8439C161.939 103.809 154.441 103.686 152.584 100.293C150.727 96.8987 152.008 91.7749 148.677 86.0745C145.347 80.3741 146.643 75.3472 145.25 74.05C143.857 72.7529 141.984 73.2335 142.848 69.1501C143.713 65.0676 144.529 64.587 143.953 61.369C143.376 58.151 140.638 40.8588 145.538 31.7325C150.438 22.6062 177.34 19.2433 182.432 22.0296C187.525 24.8158 180.607 44.3176 181.087 47.2957C181.568 50.2739 189.254 56.9987 190.311 60.9372C191.367 64.8758 195.211 46.4313 203.57 52.6754C211.929 58.9195 205.972 79.9583 210.487 79.0938C215.003 78.2294 223.65 34.5187 204.434 18.9555C185.218 3.39227 151.975 14.7282 148.132 18.9555C144.289 23.1828 144.512 31.1239 149.893 29.4589C155.273 27.794 153.416 26.7047 160.781 24.6559C168.148 22.6062 180.062 22.1585 180.894 24.4C181.727 26.6416 179.101 42.4607 179.549 44.8303C179.998 47.1998 185.185 43.8059 186.211 46.816C187.235 49.8261 187.235 56.0382 189.541 53.3489C191.847 50.6586 195.434 38.4902 198.957 42.3968C202.48 46.3033 203.569 52.0677 205.875 49.6342C208.181 47.2007 209.141 43.1653 210.295 45.9835C211.448 48.8017 207.669 79.1588 208.501 83.6419C209.334 88.1251 205.171 93.7606 201.84 98.5006C198.509 103.24 182.176 114.256 182.816 115.152C183.457 116.049 199.214 127.961 199.983 127.257C200.751 126.552 215.099 97.7961 215.484 94.722C215.869 91.6479 210.824 84.4265 210.2 85.5797C209.575 86.733 202.081 101.335 203.378 101.287C204.675 101.239 209.767 90.0469 210.104 92.0646C210.439 94.0823 208.134 98.5975 210.536 97.6362C212.938 96.6757 212.966 89.5183 216.387 90.9593C219.808 92.4004 228.551 101.575 228.935 102.471C229.319 103.368 231.177 112.206 230.921 113.487C230.665 114.768 222.466 118.995 222.53 120.596C222.594 122.197 230.841 124.63 230.946 127.129C231.05 129.627 168.214 229.345 168.934 225.165C169.655 220.986 196.461 142.019 201.217 130.203C205.973 118.386 215.869 96.387 218.079 96.9636C220.288 97.5402 271.403 114.64 279.666 127.321C287.929 140.002 302.532 231.074 296 252.208C289.466 273.343 214.62 308.456 212.314 307.592C210.009 306.727 193.259 269.373 194.155 268.54C195.052 267.708 248.921 246.637 253.725 237.222C258.528 227.807 245.462 173.049 249.497 174.97C253.532 176.892 257.952 231.649 261.411 233.763C264.87 235.877 276.783 234.436 275.727 236.549C274.67 238.663 258.144 235.493 259.201 237.99C260.257 240.488 273.133 246.156 272.171 247.213C271.211 248.269 255.55 240.392 252.763 242.313C249.977 244.234 199.343 269.116 195.404 269.884C191.465 270.653 184.931 268.796 180.768 269.884C176.604 270.973 175.516 272.142 175.949 273.343C176.381 274.544 177.294 276.177 178.111 275.505C178.927 274.832 173.883 269.74 172.682 269.692C171.481 269.644 159.712 280.932 159.568 282.326C159.424 283.719 160.913 286.793 162.066 286.36C163.219 285.927 181.089 275.985 178.015 276.897C174.94 277.809 160.528 286.84 159.567 288.233C158.606 289.626 160.864 293.852 163.122 294.093C165.38 294.333 178.927 288.425 177.342 288.329C175.757 288.233 165.284 293.997 165.284 295.486C165.284 296.975 167.254 299.714 170.28 299.906C173.307 300.097 182.723 294.862 181.474 295.103C180.224 295.343 171.434 299.33 171.626 301.443C171.818 303.556 174.652 304.757 177.487 304.565C180.321 304.373 185.029 301.491 183.636 301.778C182.242 302.066 177.823 303.22 180.081 305.381C182.338 307.543 202.611 301.587 205.045 297.808C207.479 294.029 199.344 276.801 201.458 277.057C203.572 277.313 211.771 300.818 215.165 299.409C218.56 298 221.442 287.113 225.093 290.634C228.744 294.157 234.637 293.645 236.366 291.531C238.096 289.417 244.565 269.115 248.216 275.776C251.868 282.437 256.863 283.205 258.977 279.682C261.091 276.16 262.756 270.524 263.717 272.253C264.677 273.982 272.171 317.533 274.862 317.533C277.553 317.533 287.929 275.84 304.839 291.595C321.749 307.35 326.168 314.075 345 287.176" stroke="#FFDC54" stroke-miterlimit="10"/>
</svg>
