<svg xmlns="http://www.w3.org/2000/svg" id="Group_5008" data-name="Group 5008" width="24" height="24" viewBox="0 0 24 24">
  <path id="Path_1346" data-name="Path 1346" d="M12,20.022,8.473,21.729l-1.6-3.574-3.8-.959,1.068-3.769L1.846,10.249l3.241-2.2.285-3.907,3.9.4L12,1.729l2.73,2.81,3.9-.4.285,3.907,3.241,2.2-2.293,3.177,1.068,3.769-3.8.959-1.6,3.574Z" fill="#4a4a59" fill-rule="evenodd" opacity="0.3"/>
  <path id="Path_1347" data-name="Path 1347" d="M14.089,8.6,8.361,14.7l1.348,1.348,5.728-6.1Z" fill="#4a4a59" fill-rule="evenodd"/>
  <path id="Path_1348" data-name="Path 1348" d="M10.854,9.175A1.718,1.718,0,1,1,9.136,7.457a1.718,1.718,0,0,1,1.718,1.718" fill="#4a4a59" fill-rule="evenodd" opacity="0.3"/>
  <path id="Path_1349" data-name="Path 1349" d="M14.864,16.622A1.718,1.718,0,1,1,16.583,14.9,1.719,1.719,0,0,1,14.864,16.622Z" fill="#4a4a59" fill-rule="evenodd" opacity="0.3"/>
</svg>